<?xml version="1.0" encoding="UTF-8" standalone="no"?><!DOCTYPE svg PUBLIC "-//W3C//DTD SVG 1.1//EN" "http://www.w3.org/Graphics/SVG/1.1/DTD/svg11.dtd"><svg width="100%" height="100%" viewBox="0 0 5000 5000" version="1.1" xmlns="http://www.w3.org/2000/svg" xmlns:xlink="http://www.w3.org/1999/xlink" xml:space="preserve" xmlns:serif="http://www.serif.com/" style="fill-rule:evenodd;clip-rule:evenodd;stroke-linejoin:round;stroke-miterlimit:2;"><rect id="Logo-zoom-in" serif:id="Logo zoom in" x="0" y="0" width="5000" height="5000" style="fill:none;"/><path d="M3892.51,4367.045c0,-17.791 -7.068,-34.854 -19.648,-47.434c-12.58,-12.58 -29.643,-19.648 -47.434,-19.648c-381.074,-0 -2269.782,-0 -2650.856,-0c-17.791,-0 -34.854,7.068 -47.434,19.648c-12.58,12.58 -19.648,29.643 -19.648,47.434l0,0.003c-0,17.791 7.068,34.854 19.648,47.434c12.58,12.58 29.643,19.648 47.434,19.648c381.074,0 2269.782,0 2650.856,0c17.791,0 34.854,-7.068 47.434,-19.648c12.58,-12.58 19.648,-29.643 19.648,-47.434c-0,-0.001 -0,-0.002 -0,-0.003Z" style="fill:#9f560d;"/><path d="M1419.324,3985.03l2161.352,0c0,0 -51.171,125.557 -79.986,196.263c-12.649,31.036 -19.153,64.232 -19.153,97.747l0,20.923l-1963.072,0c0,-0 0,-34.67 0,-54.161c0,-8.536 -1.629,-16.994 -4.799,-24.92c-19.83,-49.575 -94.341,-235.852 -94.341,-235.852Z" style="fill:#dd7b19;"/><path id="Middle" d="M3892.51,2399.503l-2785.02,0l0,1227.317c-0,244.11 197.89,442 442,442l1901.02,0c244.11,-0 442,-197.89 442,-442l0,-1227.317Z" style="fill:#ee8a26;"/><path d="M3892.51,2641.65l70.614,-0c18.728,-0 36.689,7.44 49.932,20.682c13.243,13.243 20.682,31.204 20.682,49.932c-0,121.882 -0,370.358 -0,492.24c0,18.728 -7.44,36.689 -20.682,49.932c-13.243,13.243 -31.204,20.682 -49.932,20.682l-70.614,0l0,141.228l105.921,0c97.498,-0 176.535,-79.038 176.535,-176.535c0,-162.534 -0,-402.378 -0,-564.913c-0,-97.498 -79.038,-176.535 -176.535,-176.535c-57.07,-0 -105.921,-0 -105.921,-0l0,143.287Z" style="fill:#dd7b19;"/><g><g transform="matrix(958.496408,0,0,958.496408,2257.705005,3475.760365)"></g><text x="1877.182px" y="3475.76px" style="font-family:'Worktalk';font-size:958.496px;fill:#fff;">&lt;</text><g transform="matrix(958.496408,0,0,958.496408,2769.148863,3515.304263)"></g><text x="2286.067px" y="3515.304px" style="font-family:'Worktalk';font-size:958.496px;fill:#fff;">/</text><g transform="matrix(958.496408,0,0,958.496408,3122.818061,3475.760365)"></g><text x="2742.295px" y="3475.76px" style="font-family:'Worktalk';font-size:958.496px;fill:#fff;">&gt;</text></g><path d="M3892.51,2399.503l-2785.02,-0c0,0 0,-169.477 0,-259.784c0,-14.628 5.811,-28.657 16.155,-39c10.344,-10.344 24.372,-16.155 39,-16.155c355.416,-0 2319.294,-0 2674.71,-0c14.628,-0 28.657,5.811 39,16.155c10.344,10.344 16.155,24.372 16.155,39c-0,90.307 -0,259.784 -0,259.784Z" style="fill:#fdcd7c;"/><g><path d="M2328.623,565.886c-6.044,-0.241 -11.854,2.351 -15.711,7.011c-3.857,4.659 -5.319,10.851 -3.954,16.744c93.351,403.827 -76.352,391.67 -249.878,584.187c-231.231,256.537 93.639,666.259 138.007,585.412c50.745,-92.467 -51.215,-280.657 203.794,-481.561c237.689,-187.259 193.636,-430.194 150.581,-511.086c-56.032,-105.275 -132.404,-197.653 -222.839,-200.706Z" style="fill:#ffce7b;"/><path d="M2847.173,904.802c-6.251,-0.734 -12.47,1.609 -16.685,6.284c-4.214,4.675 -5.9,11.104 -4.523,17.245c63.499,283.094 -57.535,275.629 -181.273,412.909c-166.257,184.453 67.327,479.046 99.228,420.917c36.486,-66.484 -36.824,-201.795 146.53,-346.247c170.901,-134.641 139.226,-309.313 108.269,-367.476c-38.483,-72.303 -90.31,-136.146 -151.547,-143.633Z" style="fill:#ffce7b;"/></g></svg>